<svg width="10" height="11" viewBox="0 0 10 11" fill="none" xmlns="http://www.w3.org/2000/svg">
<path d="M6.10584 5L9.77093 1.33491C10.0764 1.02949 10.0764 0.534492 9.77093 0.229068C9.46551 -0.076356 8.97051 -0.076356 8.66509 0.229068L5 3.89415L1.33491 0.229068C1.02949 -0.076356 0.534492 -0.076356 0.229068 0.229068C-0.076356 0.534492 -0.076356 1.02949 0.229068 1.33491L3.89415 5L0.229068 8.66509C-0.076356 8.97051 -0.076356 9.46551 0.229068 9.77093C0.376514 9.91838 0.576619 10.0026 0.776725 10.0026C0.97683 10.0026 1.17694 9.92891 1.32438 9.77093L5 6.10584L8.66509 9.77093C8.81253 9.91838 9.01264 10.0026 9.21274 10.0026C9.41285 10.0026 9.61295 9.92891 9.7604 9.77093C10.0658 9.46551 10.0658 8.97051 9.7604 8.66509L6.10584 5Z" fill="#85889F"/>
</svg>
